<svg width="9" height="9" viewBox="0 0 9 9" fill="none" xmlns="http://www.w3.org/2000/svg">
<path d="M1 6.25V2.75H2.5L4 1V8L2.5 6.25H1Z" fill="white" stroke="white" stroke-width="0.5" stroke-linejoin="round"/>
<path fill-rule="evenodd" clip-rule="evenodd" d="M5.79293 4.50001L4.78791 3.49498C4.7098 3.41688 4.7098 3.29024 4.78791 3.21214L5.21217 2.78788C5.29027 2.70977 5.41691 2.70977 5.49501 2.78788L6.50004 3.7929L7.50506 2.78788C7.58317 2.70977 7.7098 2.70977 7.78791 2.78788L8.21217 3.21214C8.29027 3.29024 8.29027 3.41688 8.21217 3.49498L7.20714 4.50001L8.21217 5.50503C8.29027 5.58314 8.29027 5.70977 8.21217 5.78788L7.78791 6.21214C7.7098 6.29024 7.58317 6.29024 7.50506 6.21214L6.50004 5.20711L5.49501 6.21214C5.41691 6.29024 5.29027 6.29024 5.21217 6.21214L4.78791 5.78788C4.7098 5.70977 4.7098 5.58314 4.78791 5.50503L5.79293 4.50001Z" fill="white"/>
</svg>
