<svg width="9" height="9" viewBox="0 0 9 9" fill="none" xmlns="http://www.w3.org/2000/svg">
<path d="M1 6.25V2.75H2.5L4 1V8L2.5 6.25H1Z" fill="white" stroke="white" stroke-width="0.5" stroke-linejoin="round"/>
<path fill-rule="evenodd" clip-rule="evenodd" d="M7.5 4.5C7.5 3.1866 6.48719 2.10976 5.19997 2.00788C5.08986 1.99917 5 1.91046 5 1.8V1.2C5 1.08954 5.08972 0.999406 5.20001 1.00562C7.03994 1.10928 8.5 2.63413 8.5 4.5C8.5 6.36587 7.03994 7.89072 5.20001 7.99438C5.08972 8.00059 5 7.91046 5 7.8V7.2C5 7.08954 5.08986 7.00083 5.19997 6.99212C6.48719 6.89024 7.5 5.8134 7.5 4.5Z" fill="white"/>
<path fill-rule="evenodd" clip-rule="evenodd" d="M6 4.5C6 4.01576 5.65581 3.61191 5.19872 3.51975C5.09045 3.49791 5 3.41046 5 3.3V2.7C5 2.58954 5.0898 2.49895 5.19972 2.50985C6.21052 2.61006 7 3.46283 7 4.5C7 5.53717 6.21052 6.38994 5.19972 6.49015C5.0898 6.50105 5 6.41046 5 6.3V5.7C5 5.58954 5.09045 5.50209 5.19872 5.48025C5.65581 5.38809 6 4.98424 6 4.5Z" fill="white"/>
</svg>
